<?xml version="1.0" encoding="utf-8"?>
<!-- Generator: Adobe Illustrator 21.1.0, SVG Export Plug-In . SVG Version: 6.00 Build 0)  -->
<svg version="1.1" id="Capa_1" xmlns="http://www.w3.org/2000/svg" xmlns:xlink="http://www.w3.org/1999/xlink" x="0px" y="0px"
	 viewBox="0 0 100 100" style="enable-background:new 0 0 100 100;" xml:space="preserve">
<style type="text/css">
	.st0{clip-path:url(#SVGID_2_);}
	.st1{fill:#FFFFFF;}
	.st2{clip-path:url(#SVGID_2_);fill:#FFFFFF;}
</style>
<g>
	<defs>
		<circle id="SVGID_1_" cx="50.1" cy="49.9" r="49.9"/>
	</defs>
	<clipPath id="SVGID_2_">
		<use xlink:href="#SVGID_1_"  style="overflow:visible;"/>
	</clipPath>
	<path class="st0" d="M58.3,72.7c-2.1-2.2-1.2-6-1.2-6c2.6-1,9-5.4,12.8-9.5c6.4-7.2,22-26.3,20.3-24.8l-1.4,0.2
		c-9.9,1-19-3.9-19-3.9l0.1-7.3c-2.9-2.1-6.3,5.6-6.3,5.6c-12.6-6.4-29.2,1.2-29.2,1.2s-4.2-5.5-8-4.4l2.4,7.9
		c-3.9,7-18.9,10.7-18.9,10.7c18.6,19.4,36,24.7,36,24.7c1.6,3.6-0.1,6.1-0.1,6.1c-14.7,4.6-9.4,24.6-9.4,24.6
		c12.8,9.3,34.9,20.7,34.9-2.8C71.2,75.5,58.3,72.7,58.3,72.7z"/>
	<g class="st0">
		<circle class="st1" cx="35.6" cy="48.1" r="4"/>
	</g>
	<g class="st0">
		<circle class="st1" cx="66" cy="46.3" r="4"/>
	</g>
	<path class="st2" d="M47.8,66.6l4.2,3.7l4.2-3.7C56.2,66.6,52.1,62.7,47.8,66.6z"/>
</g>
</svg>
